<svg width="25" height="22" viewBox="0 0 25 22" fill="none" xmlns="http://www.w3.org/2000/svg">
<path fill-rule="evenodd" clip-rule="evenodd" d="M7.78454 1.9293H17.0652C20.4449 1.9293 22.3529 3.67877 22.3629 6.76326V15.234C22.3629 18.3176 20.4449 20.068 17.0652 20.068H7.78454C4.4048 20.068 2.48785 18.3176 2.48785 15.234V6.76326C2.48785 3.67877 4.4048 1.9293 7.78454 1.9293ZM12.4741 16.3133C12.9024 16.3133 13.2592 16.0231 13.299 15.6331V6.39142C13.3387 6.11027 13.1906 5.82821 12.9223 5.67494C12.6431 5.52076 12.3052 5.52076 12.0379 5.67494C11.7686 5.82821 11.6205 6.11027 11.6493 6.39142V15.6331C11.7 16.0231 12.0568 16.3133 12.4741 16.3133ZM17.0463 16.3133C17.4637 16.3133 17.8205 16.0231 17.8712 15.6331V12.6583C17.9 12.3672 17.7519 12.096 17.4826 11.9419C17.2153 11.7877 16.8774 11.7877 16.5992 11.9419C16.3298 12.096 16.1818 12.3672 16.2215 12.6583V15.6331C16.2613 16.0231 16.618 16.3133 17.0463 16.3133ZM8.66804 15.6331C8.62829 16.0231 8.27153 16.3133 7.84323 16.3133C7.41591 16.3133 7.05816 16.0231 7.01941 15.6331V9.36616C6.98959 9.0841 7.13766 8.80386 7.40697 8.64968C7.67429 8.4955 8.01316 8.4955 8.28147 8.64968C8.54879 8.80386 8.69884 9.0841 8.66804 9.36616V15.6331Z" fill="#00C6B1"/>
</svg>
