<svg width="13" height="16" viewBox="0 0 13 16" fill="none" xmlns="http://www.w3.org/2000/svg">
<g id="delete" clip-path="url(#clip0_248_191)">
<path id="Vector" d="M3.79316 12.347C3.79316 13.053 4.21522 13.6307 4.73106 13.6307H8.48262C8.99846 13.6307 9.42051 13.053 9.42051 12.347V5.92872C9.42051 5.22271 8.99846 4.64506 8.48262 4.64506H4.73106C4.21522 4.64506 3.79316 5.22271 3.79316 5.92872V12.347ZM9.42051 2.71957H8.24815L7.9152 2.26387C7.83079 2.14834 7.70886 2.07774 7.58693 2.07774H5.62674C5.50482 2.07774 5.38289 2.14834 5.29848 2.26387L4.96553 2.71957H3.79316C3.53524 2.71957 3.32422 3.0084 3.32422 3.3614C3.32422 3.71441 3.53524 4.00323 3.79316 4.00323H9.42051C9.67843 4.00323 9.88946 3.71441 9.88946 3.3614C9.88946 3.0084 9.67843 2.71957 9.42051 2.71957Z" fill="#E53E3E"/>
</g>
<defs>
<clipPath id="clip0_248_191">
<rect width="11.2547" height="15.4039" fill="white" transform="translate(0.979492 0.152267)"/>
</clipPath>
</defs>
</svg>
