<svg width="274" height="119" viewBox="0 0 274 119" fill="none" xmlns="http://www.w3.org/2000/svg">
<path d="M36.5455 72.2833C34.8129 71.7361 33.1935 70.8801 31.7654 69.7567L34.2749 66.1648C35.3489 67.0302 36.572 67.6921 37.8839 68.1178C39.2594 68.5781 40.7014 68.8088 42.1518 68.8007C43.7771 68.8007 45.0666 68.5161 46.0203 67.9471C46.9729 67.3803 47.4509 66.6053 47.4509 65.6288C47.455 65.1805 47.3329 64.7402 47.0987 64.358C46.8644 63.9758 46.5274 63.6672 46.1261 63.4675C45.2418 62.9553 43.8351 62.5866 41.9094 62.351C38.5838 61.9595 36.1608 61.1764 34.6403 60.0019C33.1197 58.8274 32.3595 57.1475 32.3595 54.9623C32.3403 53.6075 32.7754 52.2852 33.5955 51.2065C34.4909 50.0612 35.677 49.1769 37.0303 48.6458C38.6356 48.0014 40.3541 47.6867 42.0836 47.7205C43.7346 47.7217 45.3753 47.9821 46.9456 48.4921C48.4771 48.9737 49.919 49.7039 51.2135 50.6534L48.844 54.0678C47.8809 53.3565 46.81 52.8043 45.672 52.4323C44.5596 52.0636 43.3955 51.8746 42.2235 51.8723C40.7098 51.8723 39.4784 52.1569 38.5292 52.7259C37.5732 53.2961 37.0986 54.0234 37.0986 54.9043C37.0955 55.3354 37.2111 55.759 37.4327 56.1288C37.6543 56.4985 37.9734 56.8002 38.3551 57.0007C39.1905 57.5106 40.5562 57.8816 42.4523 58.1138C45.8462 58.569 48.3273 59.3998 49.8956 60.6062C51.4639 61.8126 52.2481 63.4686 52.2481 65.5741C52.2723 67.0055 51.8314 68.4061 50.9916 69.5655C50.0807 70.7705 48.8489 71.6946 47.4373 72.2321C45.748 72.8826 43.9479 73.197 42.1382 73.1574C40.2394 73.1639 38.3517 72.8688 36.5455 72.2833Z" fill="#2D7A9F"/>
<path d="M55.6078 47.7273H75.8584V52.0499H68.1556V73.113H63.3106V52.0499H55.6078V47.7273Z" fill="#2D7A9F"/>
<path d="M80.0442 47.7273H98.2734V51.9099H84.7833V57.7314H97.6452V61.8115H84.7833V68.8041H98.5875V73.0242H80.0442V47.7273Z" fill="#2D7A9F"/>
<path d="M102.849 47.7273H123.086V52.0499H115.397V73.113H110.552V52.0499H102.849V47.7273Z" fill="#2D7A9F"/>
<path d="M127.285 47.7273H132.096V57.5197H143.736V47.7273H148.547V73.0242H143.736V61.9481H132.096V73.0242H127.285V47.7273Z" fill="#2D7A9F"/>
<path d="M163.46 47.7273H168.722L179.648 73.0242H174.369L172.348 67.3871H159.766L157.741 73.0242H152.514L163.46 47.7273ZM170.607 63.1363L166.076 52.504L161.541 63.1363H170.607Z" fill="#B22D0F"/>
<path d="M188.754 47.7273H183.943V73.0242H188.754V47.7273Z" fill="#B22D0F"/>
<path d="M188.754 42.8107V43.794H183.943V37.9896C184.576 37.9896 185.202 38.1144 185.786 38.3568C186.371 38.5992 186.902 38.9545 187.348 39.4023C187.795 39.8501 188.149 40.3817 188.391 40.9665C188.632 41.5514 188.755 42.1781 188.754 42.8107Z" fill="#B22D0F"/>
<path d="M194.896 47.7273H199.226L208.079 58.882L216.898 47.7273H221.248V73.0242H216.437V55.6418L208.561 65.5024H207.584L199.707 55.6418V73.0242H194.896V47.7273Z" fill="#2D7A9F"/>
<path d="M127.012 14.1608C117.876 14.1711 108.966 17.0098 101.508 22.287C94.0491 27.5642 88.4073 35.0211 85.3571 43.6335H90.5366C93.4669 36.3584 98.5057 30.1258 105.005 25.7366C111.505 21.3473 119.169 19.002 127.012 19.002C134.855 19.002 142.519 21.3473 149.019 25.7366C155.519 30.1258 160.557 36.3584 163.488 43.6335H168.667C165.617 35.0211 159.975 27.5642 152.517 22.287C145.058 17.0098 136.149 14.1711 127.012 14.1608ZM162.897 76.7527C159.795 83.6754 154.756 89.5531 148.389 93.6771C142.022 97.801 134.598 99.9953 127.012 99.9953C119.426 99.9953 112.002 97.801 105.635 93.6771C99.2678 89.5531 94.2295 83.6754 91.1273 76.7527H85.8692C89.1038 85.032 94.761 92.1427 102.101 97.1555C109.442 102.168 118.123 104.85 127.012 104.85C135.901 104.85 144.583 102.168 151.923 97.1555C159.263 92.1427 164.92 85.032 168.155 76.7527H162.897Z" fill="#B22D0F"/>
</svg>
