<svg width="15" height="13" viewBox="0 0 15 13" fill="none" xmlns="http://www.w3.org/2000/svg">
<path fill-rule="evenodd" clip-rule="evenodd" d="M5.32745 1.30566H10.3135C12.263 1.30566 13.5684 2.5548 13.5684 4.41275V8.70126C13.5684 10.554 12.263 11.8026 10.3135 11.8026H5.32745C3.37791 11.8026 2.06671 10.554 2.06671 8.70126V4.41275C2.06671 2.5548 3.37791 1.30566 5.32745 1.30566ZM7.8119 5.01161C7.54161 5.01161 7.31732 4.8064 7.31732 4.55499C7.31732 4.29782 7.54161 4.09313 7.8234 4.09313C8.09944 4.09313 8.32372 4.29782 8.32372 4.55499C8.32372 4.8064 8.09944 5.01161 7.8119 5.01161ZM8.31786 8.53854C8.31786 8.79047 8.09358 8.99516 7.81179 8.99516C7.53575 8.99516 7.31146 8.79047 7.31146 8.53854V6.21873C7.31146 5.96628 7.53575 5.75686 7.81179 5.75686C8.09358 5.75686 8.31786 5.96628 8.31786 6.21873V8.53854Z" fill="#B22D0F"/>
</svg>
