<svg width="21" height="20" viewBox="0 0 21 20" fill="none" xmlns="http://www.w3.org/2000/svg">
<g id="Chat">
<path id="Chat_2" fill-rule="evenodd" clip-rule="evenodd" d="M0.591736 10.0136C0.591736 5.236 4.77542 0.930676 10.5491 0.930676C16.1936 0.930676 20.4667 5.15425 20.4667 9.98639C20.4667 15.5906 15.4582 19.0694 10.5292 19.0694C8.89949 19.0694 7.09086 18.6697 5.63999 17.8886C5.13317 17.607 4.70586 17.3981 4.1593 17.5616L2.15192 18.1066C1.64511 18.2519 1.18799 17.8886 1.33705 17.3981L2.00286 15.3635C2.11217 15.0819 2.0923 14.7822 1.9333 14.546C1.07867 13.1109 0.591736 11.5396 0.591736 10.0136ZM9.23724 10.0136C9.23724 10.6585 9.80368 11.1763 10.5092 11.1853C11.2148 11.1853 11.7812 10.6585 11.7812 10.0227C11.7812 9.37784 11.2148 8.86011 10.5092 8.86011C9.81362 8.85102 9.23724 9.37784 9.23724 10.0136ZM13.8185 10.0227C13.8185 10.6585 14.3849 11.1853 15.0905 11.1853C15.796 11.1853 16.3625 10.6585 16.3625 10.0227C16.3625 9.37784 15.796 8.86011 15.0905 8.86011C14.3849 8.86011 13.8185 9.37784 13.8185 10.0227ZM5.92834 11.1853C5.23271 11.1853 4.65634 10.6585 4.65634 10.0227C4.65634 9.37784 5.22277 8.86011 5.92834 8.86011C6.6339 8.86011 7.20034 9.37784 7.20034 10.0227C7.20034 10.6585 6.6339 11.1763 5.92834 11.1853Z" fill="#2D7A9F"/>
</g>
</svg>
