<svg width="14" height="14" viewBox="0 0 14 14" fill="none" xmlns="http://www.w3.org/2000/svg">
<g id="Document">
<path id="Document_2" fill-rule="evenodd" clip-rule="evenodd" d="M4.09809 0.875587H9.88185C12.0136 0.875587 13.2006 1.99666 13.2006 3.91759V10.4236C13.2006 12.376 12.0136 13.4719 9.88185 13.4719H4.09809C2.00017 13.4719 0.778687 12.376 0.778687 10.4236V3.91759C0.778687 1.99666 2.00017 0.875587 4.09809 0.875587ZM4.28453 3.81053V3.80423H6.34726C6.64469 3.80423 6.88623 4.02467 6.88623 4.29486C6.88623 4.5726 6.64469 4.79304 6.34726 4.79304H4.28453C3.9871 4.79304 3.74625 4.5726 3.74625 4.30178C3.74625 4.03096 3.9871 3.81053 4.28453 3.81053ZM4.28453 7.6398H9.69495C9.99169 7.6398 10.2332 7.41936 10.2332 7.14854C10.2332 6.87772 9.99169 6.65666 9.69495 6.65666H4.28453C3.9871 6.65666 3.74625 6.87772 3.74625 7.14854C3.74625 7.41936 3.9871 7.6398 4.28453 7.6398ZM4.28446 10.5181H9.69488C9.97023 10.4929 10.1779 10.2781 10.1779 10.0268C10.1779 9.76857 9.97023 9.55444 9.69488 9.52925H4.28446C4.07743 9.51035 3.8773 9.59853 3.76688 9.76228C3.65647 9.91973 3.65647 10.1276 3.76688 10.2913C3.8773 10.4488 4.07743 10.5432 4.28446 10.5181Z" fill="#2D7A9F"/>
</g>
</svg>
