<svg width="21" height="20" viewBox="0 0 21 20" fill="none" xmlns="http://www.w3.org/2000/svg">
<path fill-rule="evenodd" clip-rule="evenodd" d="M17.6039 11.1353C17.9001 11.2789 18.1286 11.5057 18.2894 11.7324C18.6025 12.201 18.5771 12.7754 18.2725 13.2818L17.6801 14.1887C17.3669 14.6724 16.783 14.9747 16.1821 14.9747C15.8859 14.9747 15.5558 14.8991 15.285 14.748C15.065 14.6195 14.8111 14.5741 14.5402 14.5741C13.7024 14.5741 13 15.2014 12.9746 15.9497C12.9746 16.8188 12.196 17.499 11.2227 17.499H10.0717C9.09002 17.499 8.31142 16.8188 8.31142 15.9497C8.29449 15.2014 7.59205 14.5741 6.75421 14.5741C6.47493 14.5741 6.22103 14.6195 6.00946 14.748C5.73864 14.8991 5.40012 14.9747 5.11237 14.9747C4.50303 14.9747 3.91908 14.6724 3.60594 14.1887L3.02199 13.2818C2.70885 12.7905 2.69193 12.201 3.00506 11.7324C3.14047 11.5057 3.39436 11.2789 3.68211 11.1353C3.91908 11.0295 4.07141 10.8557 4.21528 10.6517C4.63844 10.0017 4.38455 9.14765 3.66518 8.76221C2.82734 8.33141 2.55652 7.37157 3.03891 6.62335L3.60594 5.73154C4.0968 4.98331 5.14622 4.71879 5.99253 5.15714C6.72882 5.51992 7.68515 5.27807 8.11677 4.63566C8.25217 4.42404 8.32834 4.19731 8.31142 3.97057C8.29449 3.67582 8.38758 3.39618 8.54838 3.16945C8.86152 2.70086 9.42854 2.39855 10.0463 2.38344H11.2396C11.8659 2.38344 12.4329 2.70086 12.7461 3.16945C12.8984 3.39618 13 3.67582 12.9746 3.97057C12.9577 4.19731 13.0338 4.42404 13.1692 4.63566C13.6008 5.27807 14.5572 5.51992 15.3019 5.15714C16.1398 4.71879 17.1977 4.98331 17.6801 5.73154L18.2471 6.62335C18.7379 7.37157 18.4671 8.33141 17.6208 8.76221C16.9014 9.14765 16.6476 10.0017 17.0792 10.6517C17.2146 10.8557 17.3669 11.0295 17.6039 11.1353ZM8.25211 9.94879C8.25211 11.1354 9.32692 12.0801 10.6556 12.0801C11.9843 12.0801 13.0338 11.1354 13.0338 9.94879C13.0338 8.76222 11.9843 7.80994 10.6556 7.80994C9.32692 7.80994 8.25211 8.76222 8.25211 9.94879Z" fill="#2D7A9F"/>
</svg>
