<svg width="50" height="47" viewBox="0 0 50 47" fill="none" xmlns="http://www.w3.org/2000/svg">
<ellipse cx="25.0729" cy="23.425" rx="24.8438" ry="22.6733" fill="#00C6B1"/>
<path d="M27.6817 24.471C27.4204 23.9898 27.0423 23.6254 26.5473 23.3779C26.0661 23.1167 25.4954 22.986 24.8354 22.986C23.6942 22.986 22.7798 23.3642 22.0923 24.1204C21.4048 24.8629 21.0611 25.8598 21.0611 27.111C21.0611 28.4448 21.4186 29.4898 22.1336 30.246C22.8623 30.9885 23.8592 31.3598 25.1242 31.3598C25.9904 31.3598 26.7192 31.1398 27.3104 30.6998C27.9154 30.2598 28.3554 29.6273 28.6304 28.8023H24.1548V26.2035H31.8273V29.4829C31.5661 30.3629 31.1192 31.181 30.4867 31.9373C29.8679 32.6935 29.0773 33.3054 28.1148 33.7729C27.1523 34.2404 26.0661 34.4742 24.8561 34.4742C23.4261 34.4742 22.1473 34.1648 21.0198 33.546C19.9061 32.9135 19.0329 32.0404 18.4004 30.9267C17.7817 29.8129 17.4723 28.541 17.4723 27.111C17.4723 25.681 17.7817 24.4092 18.4004 23.2954C19.0329 22.1679 19.9061 21.2948 21.0198 20.676C22.1336 20.0435 23.4054 19.7273 24.8354 19.7273C26.5679 19.7273 28.0254 20.1467 29.2079 20.9854C30.4042 21.8242 31.1948 22.986 31.5798 24.471H27.6817Z" fill="white"/>
</svg>
